<?xml version="1.0" encoding="UTF-8"?>
<svg width="16px" height="24px" viewBox="0 0 16 24" version="1.1" xmlns="http://www.w3.org/2000/svg" xmlns:xlink="http://www.w3.org/1999/xlink">
    <!-- Generator: Sketch 41.2 (35397) - http://www.bohemiancoding.com/sketch -->
    <title>Eye</title>
    <desc>Created with Sketch.</desc>
    <defs></defs>
    <g id="Page-1" stroke="none" stroke-width="1" fill="none" fill-rule="evenodd">
        <g id="Eye" fill="#000000">
            <path d="M8.06,6 C3,6 0,12 0,12 C0,12 3,18 8.06,18 C13,18 16,12 16,12 C16,12 13,6 8.06,6 L8.06,6 Z M8,16 C5.8,16 4,14.22 4,12 C4,9.8 5.8,8 8,8 C10.22,8 12,9.8 12,12 C12,14.22 10.22,16 8,16 Z M10,12 C10,13.11 9.11,14 8,14 C6.89,14 6,13.11 6,12 C6,10.89 6.89,10 8,10 C9.11,10 10,10.89 10,12 Z" id="Shape"></path>
        </g>
    </g>
</svg>